<?xml version="1.0" standalone="no"?>
<!DOCTYPE svg PUBLIC "-//W3C//DTD SVG 20010904//EN"
 "http://www.w3.org/TR/2001/REC-SVG-20010904/DTD/svg10.dtd">
<svg version="1.0" xmlns="http://www.w3.org/2000/svg"
 width="512.000000pt" height="512.000000pt" viewBox="0 0 512.000000 512.000000"
 preserveAspectRatio="xMidYMid meet">
<metadata>
Created by potrace 1.11, written by Peter Selinger 2001-2013
</metadata>
<g transform="translate(0.000000,512.000000) scale(0.100000,-0.100000)"
fill="#000000" stroke="none">
<path d="M1379 4609 c-52 -37 -157 -141 -186 -184 -74 -110 -130 -269 -132
-380 -2 -96 -1 -163 3 -180 2 -11 7 -42 10 -69 4 -27 9 -53 12 -58 3 -4 -8
-13 -23 -20 -15 -7 -47 -25 -71 -41 l-44 -29 -16 23 c-59 85 -193 168 -300
187 -63 11 -166 8 -237 -8 -114 -25 -300 -110 -310 -141 -11 -34 5 -112 36
-177 73 -153 247 -259 494 -303 39 -7 72 -16 75 -20 3 -4 4 -222 3 -486 -1
-291 3 -491 9 -511 15 -49 38 -56 198 -62 l145 -5 1 -25 c2 -38 14 -142 19
-166 3 -12 7 -39 11 -60 13 -81 78 -273 129 -381 173 -364 438 -617 813 -777
45 -19 82 -33 82 -29 0 3 6 1 13 -4 25 -20 273 -84 377 -97 128 -17 195 -21
355 -21 246 0 348 14 537 74 297 96 563 298 761 579 20 28 37 54 37 57 0 2 12
21 26 42 69 100 175 347 224 519 37 127 35 122 58 239 l17 90 128 2 c135 3
157 9 183 48 15 23 17 84 17 566 0 400 -3 546 -12 563 -25 46 -43 50 -254 51
l-198 0 -40 100 c-51 128 -67 161 -132 266 -159 256 -371 453 -624 578 -77 38
-313 125 -313 116 0 -3 -10 -1 -23 4 -13 5 -41 12 -61 15 -21 4 -41 8 -45 10
-3 2 -34 7 -68 11 -35 4 -75 9 -90 12 -54 9 -419 11 -478 2 -33 -4 -82 -11
-110 -15 -48 -6 -224 -48 -255 -61 -8 -3 -20 -7 -26 -8 -40 -9 -277 -125 -294
-144 -3 -3 -27 -22 -55 -41 -27 -19 -56 -40 -63 -47 -21 -20 -49 -33 -56 -26
-3 3 -6 15 -6 25 0 61 -132 389 -167 416 -25 18 -35 15 -84 -19z m1547 -169
c278 -28 493 -93 702 -212 l73 -42 -3 -253 c-3 -221 -5 -252 -18 -247 -88 37
-277 96 -355 109 -118 21 -211 35 -265 40 -36 3 -78 8 -95 10 -41 6 -424 6
-455 1 -14 -3 -56 -7 -95 -10 -38 -4 -83 -9 -100 -12 -39 -6 -175 -32 -200
-38 -37 -8 -220 -67 -242 -78 -38 -19 -36 -36 -47 314 l-6 178 40 25 c284 179
664 256 1066 215z m-1190 -336 c3 -17 15 -336 16 -394 1 -62 -2 -67 -32 -80
-16 -7 -30 -16 -30 -21 0 -5 -4 -8 -8 -7 -11 4 -125 -85 -167 -128 -68 -71
-85 -91 -85 -102 0 -7 -4 -12 -10 -12 -5 0 -10 -7 -10 -15 0 -8 -4 -15 -10
-15 -5 0 -10 -7 -10 -15 0 -8 -5 -15 -11 -15 -5 0 -7 -4 -4 -10 9 -14 0 -13
-56 7 -27 10 -49 21 -49 26 0 4 -4 5 -10 2 -15 -9 -12 41 5 82 8 20 13 38 10
41 -3 3 1 12 9 21 8 9 15 18 15 21 0 5 16 50 34 90 6 14 11 27 12 30 0 3 9 21
20 40 11 19 18 38 17 43 -1 4 3 7 10 7 6 0 8 3 5 6 -4 4 2 19 13 34 11 16 20
31 20 35 0 3 7 13 15 22 8 8 13 19 10 24 -4 5 -2 9 2 9 8 0 72 84 73 95 1 13
179 193 184 187 4 -3 6 1 6 8 0 17 13 4 16 -16z m2130 -53 c23 -22 45 -37 49
-33 4 4 5 2 3 -4 -1 -7 14 -28 34 -48 20 -20 34 -36 31 -36 -4 0 2 -8 13 -19
10 -10 26 -28 34 -41 8 -12 23 -32 32 -43 26 -33 31 -40 52 -78 26 -45 131
-251 135 -264 7 -22 15 -42 27 -74 16 -39 18 -81 5 -81 -5 0 -20 -4 -33 -9
-13 -5 -26 -9 -30 -10 -4 -1 -29 -11 -54 -21 -44 -19 -47 -20 -60 -3 -7 10
-14 22 -14 26 0 7 -45 77 -75 116 -22 29 -115 121 -115 115 0 -5 -6 -1 -12 7
-19 22 -85 69 -98 69 -8 0 -10 67 -7 243 3 133 5 243 6 245 3 7 40 -20 77 -57z
m-866 -294 c14 -3 56 -8 93 -12 37 -3 76 -8 86 -10 10 -2 35 -6 54 -9 33 -5
189 -40 227 -51 105 -29 223 -81 293 -128 15 -10 27 -16 27 -14 0 7 54 -39
116 -98 46 -44 134 -166 134 -185 0 -4 -12 -12 -27 -18 -84 -31 -61 -24 -218
-67 -127 -35 -269 -69 -330 -79 -235 -39 -259 -43 -345 -50 -272 -24 -532 -24
-774 0 -47 4 -142 17 -231 30 -156 23 -485 108 -485 124 0 12 42 62 79 95 18
16 41 38 50 48 8 9 19 17 23 17 4 0 24 12 45 26 31 21 134 74 153 79 3 1 41
13 85 27 138 45 274 66 485 74 122 5 157 10 166 22 12 16 8 48 -7 58 -18 11
-285 3 -369 -11 -19 -3 -48 -8 -65 -10 -60 -7 -184 -36 -243 -55 -74 -25 -215
-89 -223 -102 -3 -5 -8 -8 -10 -7 -2 2 -25 -11 -51 -29 -67 -46 -210 -191
-190 -193 4 0 -2 -4 -13 -8 -11 -5 -27 -5 -35 0 -8 4 -23 10 -33 13 -14 4 -17
12 -11 28 4 13 10 25 13 28 4 3 22 26 40 52 19 26 40 49 48 52 8 3 11 10 8 16
-3 5 -1 10 6 10 6 0 21 11 33 24 40 44 165 125 211 137 6 1 16 8 22 15 7 7 45
24 85 39 40 15 80 29 88 32 8 3 20 7 27 9 6 1 27 7 45 12 32 11 197 45 268 56
19 3 71 8 115 12 44 4 81 8 83 9 6 5 426 -3 452 -8z m-1877 -452 c-1 -11 -13
-87 -27 -170 -14 -82 -28 -179 -31 -215 -3 -36 -8 -81 -9 -100 -12 -111 -17
-251 -17 -405 l0 -175 -125 0 c-92 0 -124 3 -126 13 -1 6 -2 248 -3 537 -1
432 1 526 12 530 7 3 84 5 171 5 150 0 157 -1 155 -20z m3618 5 c4 -64 3
-1023 -1 -1029 -7 -10 -224 -7 -231 3 -4 5 -3 20 1 35 9 34 1 506 -10 506 -1
0 -3 23 -5 50 -3 47 -10 103 -19 170 -3 17 -8 55 -11 85 -4 30 -10 61 -15 70
-4 8 -5 20 -3 26 2 6 0 30 -5 52 -6 23 -8 42 -7 44 2 2 71 3 154 3 127 0 151
-2 152 -15z m-2733 -480 c52 -12 122 -42 122 -52 0 -5 7 -8 15 -8 8 0 15 -4
15 -8 0 -5 11 -15 25 -22 14 -7 25 -17 25 -22 0 -5 9 -19 21 -31 20 -21 40
-60 64 -123 16 -44 19 -164 4 -216 -7 -23 -13 -45 -14 -48 -9 -41 -67 -114
-135 -170 -112 -94 -346 -97 -457 -6 -43 34 -88 81 -85 88 1 4 -2 8 -7 8 -11
0 -62 103 -67 138 -10 63 -10 130 1 177 13 58 37 115 47 115 5 0 8 6 8 14 0 7
18 32 40 55 22 22 40 38 40 35 0 -3 7 1 15 8 33 30 45 38 45 32 0 -3 7 -1 15
6 40 33 179 49 263 30z m1851 -43 c66 -24 102 -47 154 -102 37 -37 95 -135 81
-135 -4 0 -1 -6 5 -14 18 -22 21 -163 5 -224 -16 -62 -58 -138 -80 -146 -8 -3
-12 -10 -9 -16 3 -5 2 -10 -2 -10 -5 0 -20 -11 -34 -24 -14 -13 -35 -27 -47
-30 -12 -4 -22 -11 -22 -15 0 -5 -28 -16 -62 -26 -85 -24 -206 -23 -255 3 -10
6 -20 10 -23 10 -15 0 -60 27 -60 35 0 6 -3 7 -6 4 -4 -4 -18 6 -32 21 -13 15
-21 20 -17 12 3 -8 -1 -6 -9 5 -9 11 -26 33 -38 49 -13 16 -34 54 -47 85 -45
103 -29 280 30 355 11 14 18 26 14 26 -3 0 14 20 37 44 24 23 46 41 51 39 4
-2 10 3 13 11 3 9 10 13 15 10 5 -3 9 -1 9 4 0 5 10 13 23 17 12 4 27 9 32 11
78 29 195 29 274 1z m-906 -802 c25 -22 62 -51 82 -65 20 -14 42 -29 48 -35
58 -47 255 -134 342 -151 76 -15 122 -19 213 -17 56 1 102 -2 102 -7 0 -4 -11
-15 -24 -23 -13 -9 -30 -22 -37 -29 -23 -21 -71 -52 -119 -79 -25 -13 -48 -28
-51 -32 -3 -5 -10 -9 -15 -9 -16 -1 -59 -22 -66 -33 -4 -5 -8 -6 -8 -2 0 4
-10 2 -22 -5 -13 -7 -25 -13 -28 -14 -3 0 -12 -4 -20 -7 -24 -10 -103 -37
-120 -41 -8 -2 -42 -11 -75 -19 -111 -29 -211 -40 -350 -41 -93 0 -235 9 -287
19 -12 3 -40 7 -62 11 -22 3 -44 7 -47 10 -4 2 -24 6 -45 10 -20 3 -48 10 -61
15 -13 5 -27 8 -31 7 -8 -1 -12 0 -152 55 -58 22 -106 44 -108 49 -2 4 -12 8
-23 8 -10 0 -19 5 -19 10 0 6 -9 10 -19 10 -11 0 -21 3 -23 8 -1 4 -26 22 -54
40 -28 18 -59 41 -69 52 -18 20 -17 20 41 21 32 0 66 2 74 3 8 2 40 6 70 9 76
9 237 56 268 80 6 5 12 7 12 4 0 -5 90 40 155 77 51 30 111 70 117 80 4 6 8 7
8 2 0 -5 9 1 20 14 11 13 20 19 20 14 1 -5 10 2 20 15 11 13 20 20 20 16 0 -5
14 6 30 23 17 18 30 30 30 28 0 -3 21 15 46 39 l47 43 61 -62 c34 -33 83 -79
109 -101z m1429 20 c-7 -10 -7 -12 -17 -57 -3 -15 -10 -39 -15 -54 -6 -14 -8
-30 -4 -35 3 -5 0 -9 -6 -9 -7 0 -10 -7 -6 -15 3 -8 2 -15 -3 -15 -5 0 -12
-15 -16 -32 -4 -18 -9 -35 -10 -38 -1 -3 -7 -18 -14 -35 -6 -16 -17 -43 -23
-60 -6 -16 -15 -34 -20 -39 -4 -6 -8 -18 -8 -27 0 -10 -4 -19 -9 -21 -5 -1
-11 -12 -13 -23 -1 -11 -9 -26 -16 -33 -7 -8 -10 -17 -7 -22 3 -5 1 -10 -3
-12 -5 -1 -20 -24 -34 -49 -44 -79 -53 -94 -58 -99 -3 -3 -21 -27 -40 -55 -19
-27 -39 -55 -45 -61 -5 -7 -26 -31 -44 -54 -19 -23 -41 -48 -48 -55 -6 -7 -9
-16 -5 -20 4 -4 2 -5 -3 -3 -6 1 -32 -18 -60 -44 -27 -27 -54 -48 -58 -48 -5
0 -5 -5 -1 -12 4 -6 3 -8 -3 -5 -5 3 -22 -6 -39 -20 -43 -38 -132 -94 -204
-130 -19 -9 -38 -22 -42 -27 -4 -6 -8 -7 -8 -2 0 5 -7 3 -15 -4 -8 -7 -15 -10
-15 -7 0 3 -24 -5 -52 -17 -67 -30 -204 -65 -313 -81 -78 -12 -120 -14 -260
-14 -127 -1 -175 2 -262 13 -24 3 -61 8 -84 11 -61 7 -93 14 -155 30 -31 8
-61 12 -65 9 -5 -3 -9 -1 -9 4 0 8 -38 20 -65 22 -5 0 -74 25 -110 40 -45 18
-60 24 -70 25 -5 1 -25 11 -44 23 -19 11 -38 19 -43 16 -4 -3 -8 -1 -8 5 0 5
-9 12 -20 16 -11 3 -45 23 -77 43 -31 20 -61 36 -66 34 -4 -1 -6 2 -3 7 4 5
-2 12 -11 15 -10 3 -33 20 -50 36 -18 17 -33 28 -33 24 0 -4 -9 5 -21 20 -11
14 -28 26 -36 26 -9 0 -14 3 -10 6 3 3 -18 30 -46 59 -78 79 -107 113 -129
151 -11 19 -24 34 -29 34 -5 0 -9 4 -9 9 0 5 -18 39 -40 75 -22 36 -40 70 -40
76 0 5 -5 10 -12 10 -6 0 -8 3 -5 7 4 3 -2 20 -12 37 -11 17 -20 36 -21 41 -1
6 -9 26 -17 45 -8 19 -16 42 -18 50 -2 8 -4 16 -4 18 -1 1 -1 4 -1 7 0 3 -7
19 -15 35 -9 17 -13 30 -10 30 4 0 3 6 -2 13 -4 6 -8 17 -9 22 -1 6 -5 22 -8
38 -3 15 -9 39 -12 55 -3 15 -7 32 -8 39 -1 7 -5 15 -8 19 -8 8 1 34 12 34 5
0 23 -16 41 -35 19 -19 39 -35 45 -35 7 0 14 -4 16 -8 1 -4 26 -23 53 -42 28
-19 52 -37 55 -40 14 -14 150 -78 144 -67 -4 7 2 4 14 -6 11 -11 26 -16 31
-12 6 3 11 1 11 -4 0 -6 8 -11 19 -11 10 0 32 -12 48 -27 17 -16 49 -45 72
-66 22 -20 41 -34 41 -30 0 5 7 -1 15 -11 8 -11 15 -16 15 -12 0 5 9 -2 21
-15 11 -13 18 -17 14 -9 -4 8 1 6 9 -4 9 -11 16 -16 16 -10 0 5 5 1 11 -8 5
-10 17 -18 24 -18 8 0 15 -5 15 -11 0 -5 4 -7 10 -4 5 3 10 1 10 -5 0 -6 4 -8
10 -5 5 3 10 2 10 -4 0 -8 40 -27 48 -22 1 1 10 -5 18 -14 9 -8 23 -15 33 -15
9 0 21 -4 27 -8 17 -16 116 -52 125 -46 5 3 9 1 9 -4 0 -8 51 -24 85 -27 6 0
15 -3 20 -7 9 -5 103 -27 150 -34 11 -2 36 -5 55 -9 91 -14 146 -18 281 -20
81 -1 168 1 195 5 27 5 74 11 104 15 30 4 60 10 65 13 6 4 15 7 20 8 49 10 60
13 60 14 0 1 8 3 17 5 32 6 123 38 134 46 6 5 14 6 17 2 4 -3 7 -1 7 5 0 7 3
11 8 10 12 -3 52 13 52 21 0 4 8 7 18 8 10 1 34 11 53 22 19 12 42 24 52 27 9
4 17 11 17 17 0 6 3 7 6 4 6 -6 78 40 118 76 11 9 23 17 28 17 4 0 20 13 36
28 16 16 37 32 46 35 10 4 14 12 11 17 -4 6 -1 9 7 8 7 -2 12 3 10 10 -1 6 4
11 10 10 7 -2 11 4 10 12 -2 8 0 12 4 8 4 -4 17 2 29 15 11 12 27 23 35 25 8
2 35 13 60 25 25 11 48 20 53 19 4 -1 7 2 7 6 0 5 16 14 35 22 19 8 35 17 35
22 0 4 3 7 8 6 14 -3 42 14 36 23 -3 5 -2 8 3 7 10 -3 99 57 129 86 32 33 58
45 66 33 4 -6 4 -16 0 -22z"/>
<path d="M2419 1123 c-22 -24 -31 -53 -18 -53 6 0 9 -7 6 -14 -5 -14 17 -28
48 -31 18 -2 46 16 40 26 -4 5 -1 9 5 9 14 0 9 40 -6 57 -21 22 -59 25 -75 6z"/>
<path d="M2642 1123 c-7 -10 -10 -12 -6 -4 5 9 3 12 -4 7 -16 -10 -15 -71 1
-85 8 -6 17 -8 20 -4 4 3 7 1 7 -5 0 -14 28 -5 53 16 23 20 22 47 -3 72 -25
25 -51 26 -68 3z"/>
<path d="M2850 1125 c-13 -7 -27 -21 -31 -31 -7 -22 9 -63 25 -65 52 -6 58 -5
73 18 30 46 -19 104 -67 78z"/>
<path d="M3035 1109 c-31 -33 -3 -89 45 -89 50 0 71 67 31 97 -21 16 -59 12
-76 -8z"/>
</g>
</svg>
